. 
  
http://www.torrentday.com/        :     The Hottest Private Tracker On The Net!!!


               www . TorrentDay . Com 
(((((((((((((= Enjoy No RAR releases =))))))))))))))))))))


...................................NFO:....................................

.*******************************************************************************
                  Lady.in.Cement.1968.DVDRip.AC3-X264-BARC0DE
*******************************************************************************

-------------------------------------------------------------------------------
                              General Information
-------------------------------------------------------------------------------
Type.................: Movie
Name.................: Lady in Cement 
Movie Information....: http://www.imdb.com/title/tt0063210/
Genre................: Comedy | Crime | Drama | Mystery 
-------------------------------------------------------------------------------
                                    PLOT
-------------------------------------------------------------------------------
Having come across a blonde with her feet encased in cement while on a diving trip, 
Miami Private Eye Tony Rome is helping out his police buddy on the case when he is 
hired by a very large guy to find a girl who just might be the same one. Rome is 
soon wanted by both hoods and cops, but help may (or may not) be at hand from the 
striking Kit. 

-------------------------------------------------------------------------------
                                    CAST
-------------------------------------------------------------------------------
Frank Sinatra	... 	Tony Rome
Raquel Welch	... 	Kit Forrest
Richard Conte	... 	Lt. Dave Santini
Martin Gabel	... 	Al Mungar
Lainie Kazan	... 	Maria Baretto
Pat Henry	... 	Rubin
Steve Peck	... 	Paul Mungar (as Steven Peck)
Virginia Wood	... 	Audrey
Richard Deacon	... 	Arnie Sherwin
Frank Raiter	... 	Danny Yale
Peter Hock	... 	Frenchy

-------------------------------------------------------------------------------
                                    MEDiA iNFO
-------------------------------------------------------------------------------

General
Complete name                    : Lady.in.Cement.1968.DVDRip.AC3-X264-BARC0DE.mkv
Format                           : Matroska
File size                        : 1.47 GiB
Duration                         : 1h 29mn
Overall bit rate                 : 2 343 Kbps

Video
ID                               : 1
Format                           : AVC
Format/Info                      : Advanced Video Codec
Format profile                   : High@L3.0
Format settings, CABAC           : Yes
Format settings, ReFrames        : 3 frames
Muxing mode                      : Container profile=Unknown@3.0
Codec ID                         : V_MPEG4/ISO/AVC
Duration                         : 1h 29mn
Bit rate                         : 2 134 Kbps
Width                            : 720 pixels
Height                           : 304 pixels
Display aspect ratio             : 2.35:1
Frame rate                       : 25.000 fps
Color space                      : YUV
Chroma subsampling               : 4:2:0
Bit depth                        : 8 bits
Scan type                        : Progressive
Bits/(Pixel*Frame)               : 0.390
Stream size                      : 1.32 GiB (90%)
Writing library                  : x264 core 79


Audio
ID                               : 2
Format                           : AC-3
Format/Info                      : Audio Coding 3
Mode extension                   : CM (complete main)
Codec ID                         : A_AC3
Duration                         : 1h 29mn
Bit rate mode                    : Constant
Bit rate                         : 192 Kbps
Channel(s)                       : 2 channels
Channel positions                : Front: L R
Sampling rate                    : 48.0 KHz
Stream size                      : 123 MiB (8%)
Language                         : English

Text
ID                               : 3
Format                           : VobSub
Codec ID                         : S_VOBSUB
Codec ID/Info                    : The same subtitle format used on DVDs
Language                         : English